<mxfile host="app.diagrams.net" modified="2023-11-24T07:48:06.249Z" agent="Mozilla/5.0 (Windows NT 10.0; Win64; x64) AppleWebKit/537.36 (KHTML, like Gecko) Chrome/118.0.0.0 Safari/537.36 OPR/104.0.0.0 (Edition Yx GX)" version="22.1.3" etag="ydwQfTrNXde-nYQ_KvJH" type="github">
  <diagram name="Страница — 1" id="bqJmBB0gZ_44gdi1FFws">
    <mxGraphModel>
      <root>
        <mxCell id="0" />
        <mxCell id="1" parent="0" />
      </root>
    </mxGraphModel>
  </diagram>
</mxfile>
